<?xml version="1.0" standalone="no"?>
<!DOCTYPE svg PUBLIC "-//W3C//DTD SVG 20010904//EN"
 "http://www.w3.org/TR/2001/REC-SVG-20010904/DTD/svg10.dtd">
<svg version="1.0" xmlns="http://www.w3.org/2000/svg"
 width="459.000000pt" height="459.000000pt" viewBox="0 0 459.000000 459.000000"
 preserveAspectRatio="xMidYMid meet">
<metadata>
Created by potrace 1.14, written by Peter Selinger 2001-2017
</metadata>
<g transform="translate(0.000000,459.000000) scale(0.100000,-0.100000)"
fill="#000000" stroke="none">
<path d="M2513 2933 c-7 -15 -13 -31 -13 -36 0 -5 -7 -15 -15 -23 -8 -9 -24
-47 -36 -85 -12 -38 -27 -75 -33 -82 -7 -7 -15 -20 -19 -29 -5 -14 -18 -18
-61 -18 -30 0 -57 -4 -60 -8 -3 -5 -58 -12 -123 -16 -120 -7 -245 -26 -453
-71 -127 -28 -144 -32 -280 -70 -52 -15 -105 -30 -117 -32 -13 -3 -23 -9 -23
-13 0 -4 -16 -10 -36 -13 -54 -9 -67 -23 -47 -53 15 -24 15 -24 -16 -18 -36 7
-36 7 -16 -33 23 -45 106 -113 140 -113 9 0 18 -7 21 -15 4 -8 12 -15 19 -15
7 0 35 -11 62 -24 65 -33 284 -106 315 -106 14 0 52 -12 84 -27 57 -25 76 -30
191 -52 64 -12 75 -18 70 -39 -2 -10 12 -48 30 -85 35 -70 94 -135 148 -164
17 -8 37 -23 46 -32 53 -52 82 -64 93 -36 3 8 12 15 21 15 16 0 17 1 19 42 1
15 10 33 19 41 15 10 16 18 8 40 -9 22 -8 27 4 27 18 0 20 38 4 73 -8 18 -22
27 -50 31 -22 3 -58 14 -82 24 l-42 17 125 6 c69 3 184 13 255 22 278 36 390
36 427 -1 7 -7 15 -12 19 -12 4 0 21 -13 37 -30 17 -16 39 -30 50 -30 11 0 25
-7 32 -15 7 -8 23 -15 37 -15 26 0 106 -41 139 -71 21 -20 70 -27 59 -8 -11
17 -13 59 -4 65 5 3 3 17 -4 32 -8 15 -12 35 -10 44 2 9 -2 29 -10 45 -8 15
-13 37 -11 48 2 11 -1 35 -6 53 -5 19 -5 30 1 27 5 -4 9 -1 9 5 0 6 -7 13 -15
16 -12 5 -11 9 3 23 36 38 165 69 285 69 l87 -1 133 -67 c72 -36 154 -72 180
-79 27 -6 59 -18 70 -26 12 -7 39 -17 60 -20 20 -4 37 -11 37 -16 0 -5 16 -9
35 -9 24 0 35 5 35 15 0 8 -6 15 -13 15 -14 0 -87 83 -87 99 0 6 -4 11 -9 11
-5 0 -15 20 -22 45 -7 25 -16 45 -20 45 -4 0 -12 20 -18 44 -6 24 -17 49 -25
55 -12 10 -9 24 26 94 22 45 45 89 49 97 5 8 14 27 20 43 6 15 18 27 26 27 12
0 13 3 4 14 -8 10 -9 16 -1 21 5 3 10 15 10 26 0 12 7 19 20 19 11 0 20 7 20
15 0 11 -12 15 -50 15 -27 0 -50 -4 -50 -10 0 -5 -15 -10 -33 -10 -37 0 -84
-19 -91 -37 -4 -9 2 -10 22 -2 21 8 24 8 15 -2 -6 -6 -23 -11 -38 -11 -15 0
-29 -7 -32 -14 -3 -8 -11 -14 -19 -14 -8 0 -14 -3 -14 -8 0 -10 -43 -27 -120
-48 -36 -9 -78 -26 -93 -37 -27 -19 -35 -19 -143 -8 -62 6 -125 16 -139 21
-15 6 -41 10 -58 11 -31 0 -31 1 -7 10 32 13 32 13 21 40 -10 25 -17 46 -21
64 -1 6 -5 17 -10 25 -4 8 -4 24 0 35 4 10 1 30 -6 43 -7 14 -10 31 -7 38 3 8
0 14 -7 14 -8 0 -9 10 -5 30 6 26 4 30 -14 30 -12 0 -21 -4 -21 -8 0 -4 -15
-16 -32 -26 -54 -31 -160 -116 -211 -169 l-49 -50 -116 7 c-64 4 -137 11 -162
16 -25 5 -69 9 -99 10 l-54 0 6 37 c4 20 12 40 19 44 9 6 7 16 -7 43 -16 29
-17 37 -6 50 11 13 9 20 -18 45 -20 19 -31 39 -31 56 0 24 -3 26 -25 21 -14
-4 -25 -2 -25 4 0 5 -7 10 -15 10 -8 0 -15 5 -15 10 0 21 -36 8 -47 -17z
m1664 -279 c-3 -3 -12 -4 -19 -1 -8 3 -5 6 6 6 11 1 17 -2 13 -5z"/>
<path d="M4358 2013 c7 -3 16 -2 19 1 4 3 -2 6 -13 5 -11 0 -14 -3 -6 -6z"/>
</g>
</svg>
